<svg width="232" height="44" viewBox="0 0 232 44" fill="none" xmlns="http://www.w3.org/2000/svg">
<path d="M83.7173 33.3756H81.4064L80.9807 34.5538H80.251L82.1666 29.2859H82.9647L84.8727 34.5538H84.143L83.7173 33.3756ZM83.5196 32.8131L82.5619 30.1373L81.6041 32.8131H83.5196Z" fill="#189FE0"/>
<path d="M87.8664 34.6222C87.5472 34.6222 87.2608 34.569 87.0075 34.4626C86.7541 34.3511 86.5539 34.1991 86.4069 34.0065C86.26 33.8089 86.1789 33.5834 86.1637 33.33H86.8782C86.8985 33.5378 86.9948 33.7075 87.1671 33.8393C87.3445 33.971 87.575 34.0369 87.8588 34.0369C88.1224 34.0369 88.3301 33.9786 88.4822 33.8621C88.6342 33.7455 88.7102 33.5986 88.7102 33.4212C88.7102 33.2388 88.6291 33.1045 88.467 33.0183C88.3048 32.9271 88.0539 32.8384 87.7144 32.7523C87.4053 32.6712 87.1519 32.5901 86.9542 32.509C86.7617 32.4229 86.5944 32.2987 86.4525 32.1365C86.3157 31.9693 86.2473 31.7514 86.2473 31.4828C86.2473 31.27 86.3106 31.0749 86.4373 30.8975C86.564 30.7201 86.7439 30.5807 86.9771 30.4794C87.2102 30.373 87.4762 30.3198 87.7752 30.3198C88.2364 30.3198 88.6089 30.4363 88.8926 30.6694C89.1764 30.9025 89.3285 31.2218 89.3487 31.6272H88.657C88.6418 31.4093 88.5531 31.2345 88.3909 31.1027C88.2338 30.971 88.021 30.9051 87.7524 30.9051C87.5041 30.9051 87.3065 30.9583 87.1595 31.0647C87.0125 31.1711 86.939 31.3105 86.939 31.4828C86.939 31.6196 86.9821 31.7337 87.0683 31.8249C87.1595 31.911 87.271 31.982 87.4027 32.0377C87.5396 32.0884 87.7271 32.1467 87.9653 32.2126C88.2642 32.2936 88.5075 32.3747 88.695 32.4558C88.8825 32.5318 89.0421 32.6484 89.1739 32.8055C89.3107 32.9626 89.3817 33.1678 89.3867 33.4212C89.3867 33.6492 89.3234 33.8545 89.1967 34.0369C89.07 34.2194 88.8901 34.3638 88.657 34.4702C88.4289 34.5716 88.1654 34.6222 87.8664 34.6222Z" fill="#189FE0"/>
<path d="M91.7391 31.1559C91.876 30.9178 92.0787 30.7201 92.3473 30.563C92.6209 30.4008 92.9376 30.3198 93.2975 30.3198C93.6674 30.3198 94.0019 30.4084 94.3009 30.5858C94.6049 30.7632 94.8431 31.014 95.0154 31.3384C95.1877 31.6576 95.2739 32.0301 95.2739 32.4558C95.2739 32.8764 95.1877 33.2514 95.0154 33.5808C94.8431 33.9102 94.6049 34.1662 94.3009 34.3486C94.0019 34.531 93.6674 34.6222 93.2975 34.6222C92.9427 34.6222 92.6285 34.5437 92.3549 34.3866C92.0863 34.2244 91.881 34.0243 91.7391 33.7861V36.5302H91.0474V30.3882H91.7391V31.1559ZM94.5669 32.4558C94.5669 32.1416 94.5036 31.8679 94.3769 31.6348C94.2502 31.4017 94.0779 31.2243 93.86 31.1027C93.6471 30.9811 93.4115 30.9203 93.153 30.9203C92.8996 30.9203 92.664 30.9836 92.4461 31.1103C92.2332 31.2319 92.0609 31.4119 91.9292 31.65C91.8025 31.8831 91.7391 32.1543 91.7391 32.4634C91.7391 32.7776 91.8025 33.0538 91.9292 33.292C92.0609 33.5251 92.2332 33.705 92.4461 33.8317C92.664 33.9533 92.8996 34.0141 93.153 34.0141C93.4115 34.0141 93.6471 33.9533 93.86 33.8317C94.0779 33.705 94.2502 33.5251 94.3769 33.292C94.5036 33.0538 94.5669 32.7751 94.5669 32.4558Z" fill="#189FE0"/>
<path d="M97.2258 29.7116C97.094 29.7116 96.9825 29.666 96.8913 29.5748C96.8001 29.4836 96.7545 29.3721 96.7545 29.2403C96.7545 29.1086 96.8001 28.9971 96.8913 28.9059C96.9825 28.8147 97.094 28.769 97.2258 28.769C97.3525 28.769 97.4589 28.8147 97.5451 28.9059C97.6363 28.9971 97.6819 29.1086 97.6819 29.2403C97.6819 29.3721 97.6363 29.4836 97.5451 29.5748C97.4589 29.666 97.3525 29.7116 97.2258 29.7116ZM97.5603 30.3882V34.5538H96.8685V30.3882H97.5603Z" fill="#189FE0"/>
<path d="M100.115 31.0647C100.237 30.8265 100.409 30.6416 100.632 30.5098C100.86 30.378 101.136 30.3122 101.461 30.3122V31.0267H101.278C100.503 31.0267 100.115 31.4473 100.115 32.2886V34.5538H99.4234V30.3882H100.115V31.0647Z" fill="#189FE0"/>
<path d="M106.744 32.3114C106.744 32.4431 106.736 32.5825 106.721 32.7295H103.392C103.417 33.1399 103.556 33.4617 103.81 33.6949C104.068 33.9229 104.38 34.0369 104.745 34.0369C105.044 34.0369 105.292 33.9685 105.49 33.8317C105.692 33.6898 105.834 33.5023 105.915 33.2692H106.66C106.549 33.6695 106.326 33.9964 105.991 34.2498C105.657 34.4981 105.241 34.6222 104.745 34.6222C104.35 34.6222 103.995 34.5336 103.681 34.3562C103.371 34.1788 103.128 33.928 102.951 33.6036C102.773 33.2742 102.685 32.8942 102.685 32.4634C102.685 32.0326 102.771 31.6551 102.943 31.3308C103.116 31.0064 103.356 30.7581 103.665 30.5858C103.98 30.4084 104.339 30.3198 104.745 30.3198C105.14 30.3198 105.49 30.4059 105.794 30.5782C106.098 30.7505 106.331 30.9887 106.493 31.2928C106.66 31.5918 106.744 31.9313 106.744 32.3114ZM106.029 32.1669C106.029 31.9034 105.971 31.6779 105.855 31.4904C105.738 31.2978 105.578 31.1534 105.376 31.0571C105.178 30.9558 104.958 30.9051 104.714 30.9051C104.365 30.9051 104.066 31.0166 103.817 31.2396C103.574 31.4625 103.435 31.7717 103.399 32.1669H106.029Z" fill="#189FE0"/>
<path d="M111.896 30.9583V33.4136C111.896 33.6163 111.939 33.7607 112.025 33.8469C112.111 33.928 112.261 33.9685 112.473 33.9685H112.983V34.5538H112.359C111.974 34.5538 111.685 34.4651 111.493 34.2878C111.3 34.1104 111.204 33.819 111.204 33.4136V30.9583H110.664V30.3882H111.204V29.3392H111.896V30.3882H112.983V30.9583H111.896Z" fill="#189FE0"/>
<path d="M116.322 34.6222C115.932 34.6222 115.577 34.5336 115.258 34.3562C114.943 34.1788 114.695 33.928 114.513 33.6036C114.335 33.2742 114.247 32.8942 114.247 32.4634C114.247 32.0377 114.338 31.6627 114.52 31.3384C114.708 31.009 114.961 30.7581 115.28 30.5858C115.6 30.4084 115.957 30.3198 116.352 30.3198C116.747 30.3198 117.105 30.4084 117.424 30.5858C117.743 30.7581 117.994 31.0064 118.177 31.3308C118.364 31.6551 118.458 32.0326 118.458 32.4634C118.458 32.8942 118.362 33.2742 118.169 33.6036C117.981 33.928 117.726 34.1788 117.401 34.3562C117.077 34.5336 116.717 34.6222 116.322 34.6222ZM116.322 34.0141C116.57 34.0141 116.803 33.9558 117.021 33.8393C117.239 33.7227 117.414 33.5479 117.546 33.3148C117.682 33.0817 117.751 32.7979 117.751 32.4634C117.751 32.1289 117.685 31.8451 117.553 31.612C117.422 31.3789 117.249 31.2066 117.036 31.0951C116.824 30.9786 116.593 30.9203 116.345 30.9203C116.091 30.9203 115.858 30.9786 115.645 31.0951C115.437 31.2066 115.27 31.3789 115.144 31.612C115.017 31.8451 114.954 32.1289 114.954 32.4634C114.954 32.8029 115.014 33.0893 115.136 33.3224C115.263 33.5555 115.43 33.7303 115.638 33.8469C115.845 33.9584 116.073 34.0141 116.322 34.0141Z" fill="#189FE0"/>
<path d="M123.454 29.2555V34.5538H122.762V29.2555H123.454Z" fill="#189FE0"/>
<path d="M127.347 30.3122C127.853 30.3122 128.264 30.4667 128.578 30.7759C128.892 31.0799 129.049 31.5208 129.049 32.0985V34.5538H128.365V32.1973C128.365 31.7818 128.261 31.4651 128.054 31.2472C127.846 31.0242 127.562 30.9127 127.202 30.9127C126.837 30.9127 126.546 31.0267 126.328 31.2548C126.115 31.4828 126.009 31.8147 126.009 32.2506V34.5538H125.317V30.3882H126.009V30.9811C126.146 30.7683 126.331 30.6036 126.564 30.487C126.802 30.3704 127.063 30.3122 127.347 30.3122Z" fill="#189FE0"/>
<path d="M132.338 34.6222C132.019 34.6222 131.733 34.569 131.479 34.4626C131.226 34.3511 131.026 34.1991 130.879 34.0065C130.732 33.8089 130.651 33.5834 130.635 33.33H131.35C131.37 33.5378 131.467 33.7075 131.639 33.8393C131.816 33.971 132.047 34.0369 132.331 34.0369C132.594 34.0369 132.802 33.9786 132.954 33.8621C133.106 33.7455 133.182 33.5986 133.182 33.4212C133.182 33.2388 133.101 33.1045 132.939 33.0183C132.777 32.9271 132.526 32.8384 132.186 32.7523C131.877 32.6712 131.624 32.5901 131.426 32.509C131.233 32.4229 131.066 32.2987 130.924 32.1365C130.788 31.9693 130.719 31.7514 130.719 31.4828C130.719 31.27 130.782 31.0749 130.909 30.8975C131.036 30.7201 131.216 30.5807 131.449 30.4794C131.682 30.373 131.948 30.3198 132.247 30.3198C132.708 30.3198 133.081 30.4363 133.364 30.6694C133.648 30.9025 133.8 31.2218 133.821 31.6272H133.129C133.114 31.4093 133.025 31.2345 132.863 31.1027C132.706 30.971 132.493 30.9051 132.224 30.9051C131.976 30.9051 131.778 30.9583 131.631 31.0647C131.484 31.1711 131.411 31.3105 131.411 31.4828C131.411 31.6196 131.454 31.7337 131.54 31.8249C131.631 31.911 131.743 31.982 131.875 32.0377C132.011 32.0884 132.199 32.1467 132.437 32.2126C132.736 32.2936 132.979 32.3747 133.167 32.4558C133.354 32.5318 133.514 32.6484 133.646 32.8055C133.783 32.9626 133.853 33.1678 133.859 33.4212C133.859 33.6492 133.795 33.8545 133.669 34.0369C133.542 34.2194 133.362 34.3638 133.129 34.4702C132.901 34.5716 132.637 34.6222 132.338 34.6222Z" fill="#189FE0"/>
<path d="M136.211 31.1559C136.348 30.9178 136.55 30.7201 136.819 30.563C137.093 30.4008 137.409 30.3198 137.769 30.3198C138.139 30.3198 138.474 30.4084 138.773 30.5858C139.077 30.7632 139.315 31.014 139.487 31.3384C139.66 31.6576 139.746 32.0301 139.746 32.4558C139.746 32.8764 139.66 33.2514 139.487 33.5808C139.315 33.9102 139.077 34.1662 138.773 34.3486C138.474 34.531 138.139 34.6222 137.769 34.6222C137.415 34.6222 137.1 34.5437 136.827 34.3866C136.558 34.2244 136.353 34.0243 136.211 33.7861V36.5302H135.519V30.3882H136.211V31.1559ZM139.039 32.4558C139.039 32.1416 138.975 31.8679 138.849 31.6348C138.722 31.4017 138.55 31.2243 138.332 31.1027C138.119 30.9811 137.883 30.9203 137.625 30.9203C137.371 30.9203 137.136 30.9836 136.918 31.1103C136.705 31.2319 136.533 31.4119 136.401 31.65C136.274 31.8831 136.211 32.1543 136.211 32.4634C136.211 32.7776 136.274 33.0538 136.401 33.292C136.533 33.5251 136.705 33.705 136.918 33.8317C137.136 33.9533 137.371 34.0141 137.625 34.0141C137.883 34.0141 138.119 33.9533 138.332 33.8317C138.55 33.705 138.722 33.5251 138.849 33.292C138.975 33.0538 139.039 32.7751 139.039 32.4558Z" fill="#189FE0"/>
<path d="M141.698 29.7116C141.566 29.7116 141.454 29.666 141.363 29.5748C141.272 29.4836 141.226 29.3721 141.226 29.2403C141.226 29.1086 141.272 28.9971 141.363 28.9059C141.454 28.8147 141.566 28.769 141.698 28.769C141.824 28.769 141.931 28.8147 142.017 28.9059C142.108 28.9971 142.154 29.1086 142.154 29.2403C142.154 29.3721 142.108 29.4836 142.017 29.5748C141.931 29.666 141.824 29.7116 141.698 29.7116ZM142.032 30.3882V34.5538H141.34V30.3882H142.032Z" fill="#189FE0"/>
<path d="M144.587 31.0647C144.709 30.8265 144.881 30.6416 145.104 30.5098C145.332 30.378 145.608 30.3122 145.932 30.3122V31.0267H145.75C144.975 31.0267 144.587 31.4473 144.587 32.2886V34.5538H143.895V30.3882H144.587V31.0647Z" fill="#189FE0"/>
<path d="M151.216 32.3114C151.216 32.4431 151.208 32.5825 151.193 32.7295H147.864C147.889 33.1399 148.028 33.4617 148.282 33.6949C148.54 33.9229 148.852 34.0369 149.217 34.0369C149.516 34.0369 149.764 33.9685 149.962 33.8317C150.164 33.6898 150.306 33.5023 150.387 33.2692H151.132C151.021 33.6695 150.798 33.9964 150.463 34.2498C150.129 34.4981 149.713 34.6222 149.217 34.6222C148.821 34.6222 148.467 34.5336 148.152 34.3562C147.843 34.1788 147.6 33.928 147.423 33.6036C147.245 33.2742 147.157 32.8942 147.157 32.4634C147.157 32.0326 147.243 31.6551 147.415 31.3308C147.587 31.0064 147.828 30.7581 148.137 30.5858C148.451 30.4084 148.811 30.3198 149.217 30.3198C149.612 30.3198 149.962 30.4059 150.266 30.5782C150.57 30.7505 150.803 30.9887 150.965 31.2928C151.132 31.5918 151.216 31.9313 151.216 32.3114ZM150.501 32.1669C150.501 31.9034 150.443 31.6779 150.326 31.4904C150.21 31.2978 150.05 31.1534 149.848 31.0571C149.65 30.9558 149.429 30.9051 149.186 30.9051C148.837 30.9051 148.538 31.0166 148.289 31.2396C148.046 31.4625 147.907 31.7717 147.871 32.1669H150.501Z" fill="#189FE0"/>
<path d="M156.368 30.9583V33.4136C156.368 33.6163 156.411 33.7607 156.497 33.8469C156.583 33.928 156.732 33.9685 156.945 33.9685H157.455V34.5538H156.831C156.446 34.5538 156.157 34.4651 155.965 34.2878C155.772 34.1104 155.676 33.819 155.676 33.4136V30.9583H155.136V30.3882H155.676V29.3392H156.368V30.3882H157.455V30.9583H156.368Z" fill="#189FE0"/>
<path d="M161.044 30.3122C161.359 30.3122 161.642 30.3806 161.896 30.5174C162.149 30.6492 162.347 30.8493 162.489 31.1179C162.636 31.3865 162.709 31.7134 162.709 32.0985V34.5538H162.025V32.1973C162.025 31.7818 161.921 31.4651 161.713 31.2472C161.506 31.0242 161.222 30.9127 160.862 30.9127C160.497 30.9127 160.206 31.0267 159.988 31.2548C159.775 31.4828 159.669 31.8147 159.669 32.2506V34.5538H158.977V28.9287H159.669V30.9811C159.805 30.7683 159.993 30.6036 160.231 30.487C160.474 30.3704 160.745 30.3122 161.044 30.3122Z" fill="#189FE0"/>
<path d="M168.324 32.3114C168.324 32.4431 168.316 32.5825 168.301 32.7295H164.972C164.997 33.1399 165.137 33.4617 165.39 33.6949C165.648 33.9229 165.96 34.0369 166.325 34.0369C166.624 34.0369 166.872 33.9685 167.07 33.8317C167.273 33.6898 167.414 33.5023 167.496 33.2692H168.24C168.129 33.6695 167.906 33.9964 167.572 34.2498C167.237 34.4981 166.822 34.6222 166.325 34.6222C165.93 34.6222 165.575 34.5336 165.261 34.3562C164.952 34.1788 164.708 33.928 164.531 33.6036C164.354 33.2742 164.265 32.8942 164.265 32.4634C164.265 32.0326 164.351 31.6551 164.523 31.3308C164.696 31.0064 164.936 30.7581 165.245 30.5858C165.56 30.4084 165.919 30.3198 166.325 30.3198C166.72 30.3198 167.07 30.4059 167.374 30.5782C167.678 30.7505 167.911 30.9887 168.073 31.2928C168.24 31.5918 168.324 31.9313 168.324 32.3114ZM167.61 32.1669C167.61 31.9034 167.551 31.6779 167.435 31.4904C167.318 31.2978 167.159 31.1534 166.956 31.0571C166.758 30.9558 166.538 30.9051 166.294 30.9051C165.945 30.9051 165.646 31.0166 165.397 31.2396C165.154 31.4625 165.015 31.7717 164.979 32.1669H167.61Z" fill="#189FE0"/>
<path d="M174.282 29.2555C174.859 29.2555 175.358 29.3645 175.779 29.5824C176.205 29.7953 176.529 30.1019 176.752 30.5022C176.98 30.9025 177.094 31.3738 177.094 31.9161C177.094 32.4583 176.98 32.9296 176.752 33.33C176.529 33.7253 176.205 34.0293 175.779 34.2422C175.358 34.4499 174.859 34.5538 174.282 34.5538H172.632V29.2555H174.282ZM174.282 33.9837C174.966 33.9837 175.488 33.8038 175.848 33.444C176.207 33.0791 176.387 32.5698 176.387 31.9161C176.387 31.2573 176.205 30.7429 175.84 30.373C175.48 30.003 174.961 29.8181 174.282 29.8181H173.324V33.9837H174.282Z" fill="#189FE0"/>
<path d="M179.048 29.7116C178.916 29.7116 178.805 29.666 178.714 29.5748C178.622 29.4836 178.577 29.3721 178.577 29.2403C178.577 29.1086 178.622 28.9971 178.714 28.9059C178.805 28.8147 178.916 28.769 179.048 28.769C179.175 28.769 179.281 28.8147 179.367 28.9059C179.458 28.9971 179.504 29.1086 179.504 29.2403C179.504 29.3721 179.458 29.4836 179.367 29.5748C179.281 29.666 179.175 29.7116 179.048 29.7116ZM179.382 30.3882V34.5538H178.691V30.3882H179.382Z" fill="#189FE0"/>
<path d="M182.964 30.3198C183.323 30.3198 183.638 30.3983 183.906 30.5554C184.18 30.7125 184.382 30.9101 184.514 31.1483V30.3882H185.214V34.6451C185.214 35.0251 185.132 35.3621 184.97 35.6561C184.808 35.9551 184.575 36.1882 184.271 36.3554C183.972 36.5226 183.622 36.6063 183.222 36.6063C182.675 36.6063 182.219 36.477 181.854 36.2186C181.489 35.9601 181.273 35.6079 181.208 35.162H181.892C181.968 35.4153 182.125 35.6181 182.363 35.7701C182.601 35.9272 182.887 36.0057 183.222 36.0057C183.602 36.0057 183.911 35.8866 184.149 35.6485C184.393 35.4103 184.514 35.0758 184.514 34.6451V33.7709C184.377 34.0141 184.175 34.2168 183.906 34.379C183.638 34.5412 183.323 34.6222 182.964 34.6222C182.594 34.6222 182.257 34.531 181.952 34.3486C181.654 34.1662 181.418 33.9102 181.246 33.5808C181.073 33.2514 180.987 32.8764 180.987 32.4558C180.987 32.0301 181.073 31.6576 181.246 31.3384C181.418 31.014 181.654 30.7632 181.952 30.5858C182.257 30.4084 182.594 30.3198 182.964 30.3198ZM184.514 32.4634C184.514 32.1492 184.451 31.8755 184.324 31.6424C184.197 31.4093 184.025 31.2319 183.807 31.1103C183.594 30.9836 183.359 30.9203 183.1 30.9203C182.842 30.9203 182.606 30.9811 182.393 31.1027C182.181 31.2243 182.011 31.4017 181.884 31.6348C181.757 31.8679 181.694 32.1416 181.694 32.4558C181.694 32.7751 181.757 33.0538 181.884 33.292C182.011 33.5251 182.181 33.705 182.393 33.8317C182.606 33.9533 182.842 34.0141 183.1 34.0141C183.359 34.0141 183.594 33.9533 183.807 33.8317C184.025 33.705 184.197 33.5251 184.324 33.292C184.451 33.0538 184.514 32.7776 184.514 32.4634Z" fill="#189FE0"/>
<path d="M187.424 29.7116C187.292 29.7116 187.181 29.666 187.089 29.5748C186.998 29.4836 186.953 29.3721 186.953 29.2403C186.953 29.1086 186.998 28.9971 187.089 28.9059C187.181 28.8147 187.292 28.769 187.424 28.769C187.551 28.769 187.657 28.8147 187.743 28.9059C187.834 28.9971 187.88 29.1086 187.88 29.2403C187.88 29.3721 187.834 29.4836 187.743 29.5748C187.657 29.666 187.551 29.7116 187.424 29.7116ZM187.758 30.3882V34.5538H187.067V30.3882H187.758Z" fill="#189FE0"/>
<path d="M190.465 30.9583V33.4136C190.465 33.6163 190.508 33.7607 190.595 33.8469C190.681 33.928 190.83 33.9685 191.043 33.9685H191.552V34.5538H190.929C190.544 34.5538 190.255 34.4651 190.062 34.2878C189.87 34.1104 189.774 33.819 189.774 33.4136V30.9583H189.234V30.3882H189.774V29.3392H190.465V30.3882H191.552V30.9583H190.465Z" fill="#189FE0"/>
<path d="M192.816 32.4558C192.816 32.0301 192.902 31.6576 193.075 31.3384C193.247 31.014 193.483 30.7632 193.782 30.5858C194.086 30.4084 194.423 30.3198 194.793 30.3198C195.157 30.3198 195.474 30.3983 195.743 30.5554C196.011 30.7125 196.212 30.9101 196.343 31.1483V30.3882H197.043V34.5538H196.343V33.7785C196.206 34.0217 196.001 34.2244 195.728 34.3866C195.459 34.5437 195.145 34.6222 194.785 34.6222C194.415 34.6222 194.081 34.531 193.782 34.3486C193.483 34.1662 193.247 33.9102 193.075 33.5808C192.902 33.2514 192.816 32.8764 192.816 32.4558ZM196.343 32.4634C196.343 32.1492 196.28 31.8755 196.153 31.6424C196.027 31.4093 195.854 31.2319 195.636 31.1103C195.423 30.9836 195.188 30.9203 194.929 30.9203C194.671 30.9203 194.435 30.9811 194.222 31.1027C194.01 31.2243 193.84 31.4017 193.713 31.6348C193.586 31.8679 193.523 32.1416 193.523 32.4558C193.523 32.7751 193.586 33.0538 193.713 33.292C193.84 33.5251 194.01 33.705 194.222 33.8317C194.435 33.9533 194.671 34.0141 194.929 34.0141C195.188 34.0141 195.423 33.9533 195.636 33.8317C195.854 33.705 196.027 33.5251 196.153 33.292C196.28 33.0538 196.343 32.7776 196.343 32.4634Z" fill="#189FE0"/>
<path d="M199.587 28.9287V34.5538H198.896V28.9287H199.587Z" fill="#189FE0"/>
<path d="M210.82 29.2555L209.285 34.5538H208.509L207.278 30.2894L206.001 34.5538L205.233 34.5614L203.751 29.2555H204.488L205.644 33.7481L206.921 29.2555H207.696L208.912 33.7329L210.075 29.2555H210.82Z" fill="#189FE0"/>
<path d="M214.078 34.6222C213.688 34.6222 213.333 34.5336 213.014 34.3562C212.7 34.1788 212.451 33.928 212.269 33.6036C212.092 33.2742 212.003 32.8942 212.003 32.4634C212.003 32.0377 212.094 31.6627 212.277 31.3384C212.464 31.009 212.717 30.7581 213.037 30.5858C213.356 30.4084 213.713 30.3198 214.109 30.3198C214.504 30.3198 214.861 30.4084 215.18 30.5858C215.5 30.7581 215.751 31.0064 215.933 31.3308C216.12 31.6551 216.214 32.0326 216.214 32.4634C216.214 32.8942 216.118 33.2742 215.925 33.6036C215.738 33.928 215.482 34.1788 215.158 34.3562C214.833 34.5336 214.473 34.6222 214.078 34.6222ZM214.078 34.0141C214.326 34.0141 214.56 33.9558 214.778 33.8393C214.995 33.7227 215.17 33.5479 215.302 33.3148C215.439 33.0817 215.507 32.7979 215.507 32.4634C215.507 32.1289 215.441 31.8451 215.31 31.612C215.178 31.3789 215.006 31.2066 214.793 31.0951C214.58 30.9786 214.349 30.9203 214.101 30.9203C213.848 30.9203 213.614 30.9786 213.402 31.0951C213.194 31.2066 213.027 31.3789 212.9 31.612C212.773 31.8451 212.71 32.1289 212.71 32.4634C212.71 32.8029 212.771 33.0893 212.892 33.3224C213.019 33.5555 213.186 33.7303 213.394 33.8469C213.602 33.9584 213.83 34.0141 214.078 34.0141Z" fill="#189FE0"/>
<path d="M218.5 31.0647C218.621 30.8265 218.794 30.6416 219.017 30.5098C219.245 30.378 219.521 30.3122 219.845 30.3122V31.0267H219.663C218.887 31.0267 218.5 31.4473 218.5 32.2886V34.5538H217.808V30.3882H218.5V31.0647Z" fill="#189FE0"/>
<path d="M222.02 28.9287V34.5538H221.328V28.9287H222.02Z" fill="#189FE0"/>
<path d="M223.624 32.4558C223.624 32.0301 223.71 31.6576 223.883 31.3384C224.055 31.014 224.291 30.7632 224.59 30.5858C224.894 30.4084 225.233 30.3198 225.608 30.3198C225.932 30.3198 226.234 30.3958 226.513 30.5478C226.791 30.6948 227.004 30.8899 227.151 31.1331V28.9287H227.851V34.5538H227.151V33.7709C227.014 34.0192 226.812 34.2244 226.543 34.3866C226.275 34.5437 225.96 34.6222 225.601 34.6222C225.231 34.6222 224.894 34.531 224.59 34.3486C224.291 34.1662 224.055 33.9102 223.883 33.5808C223.71 33.2514 223.624 32.8764 223.624 32.4558ZM227.151 32.4634C227.151 32.1492 227.088 31.8755 226.961 31.6424C226.835 31.4093 226.662 31.2319 226.444 31.1103C226.231 30.9836 225.996 30.9203 225.737 30.9203C225.479 30.9203 225.243 30.9811 225.03 31.1027C224.818 31.2243 224.648 31.4017 224.521 31.6348C224.394 31.8679 224.331 32.1416 224.331 32.4558C224.331 32.7751 224.394 33.0538 224.521 33.292C224.648 33.5251 224.818 33.705 225.03 33.8317C225.243 33.9533 225.479 34.0141 225.737 34.0141C225.996 34.0141 226.231 33.9533 226.444 33.8317C226.662 33.705 226.835 33.5251 226.961 33.292C227.088 33.0538 227.151 32.7776 227.151 32.4634Z" fill="#189FE0"/>
<g style="mix-blend-mode:multiply">
<path d="M20.3373 36.6402C20.3122 36.9405 20.2108 37.2308 20.0417 37.4864C19.8726 37.742 19.6407 37.9555 19.3657 38.1088C18.0271 38.7366 16.5526 39.0636 15.0577 39.0639C13.6546 39.067 12.2672 38.7859 10.9893 38.2395C9.71142 37.6931 8.57283 36.8942 7.65056 35.8969C6.72829 34.8995 6.04386 33.7269 5.64355 32.4585C5.24325 31.1901 5.13641 29.8553 5.33027 28.5446C5.52413 27.2338 6.01416 25.9776 6.76722 24.861C7.52028 23.7443 8.5188 22.7932 9.69524 22.072C10.8717 21.3508 12.1986 20.8764 13.5862 20.6807C14.9739 20.4851 16.3899 20.5729 17.7385 20.9381V15.8752C15.683 15.5202 13.5717 15.5733 11.5392 16.0312C9.50676 16.4891 7.59785 17.3417 5.93435 18.5346C4.27085 19.7275 2.88931 21.2344 1.87792 22.9592C0.866528 24.684 0.247513 26.5888 0.0603897 28.5519C-0.126733 30.5151 0.122147 32.4934 0.791142 34.3608C1.46014 36.2281 2.53455 37.9433 3.94579 39.3969C5.35703 40.8506 7.07409 42.0107 8.98735 42.8032C10.9006 43.5958 12.9681 44.0033 15.0577 43.9998C18.4705 44.0162 21.7826 42.9091 24.4229 40.8694C24.5983 40.7035 24.7516 40.5181 24.8795 40.3172L24.979 40.1737C25.0375 40.0798 25.1663 39.8755 25.178 39.8479C25.2904 39.6212 25.3786 39.3845 25.4414 39.1412C25.4386 39.1118 25.4386 39.0823 25.4414 39.0529C25.4386 39.0014 25.4386 38.9498 25.4414 38.8983L25.4765 38.6499C25.4765 38.5781 25.4765 38.3628 25.4765 38.291V33.079L20.3373 26.0341V36.6402Z" fill="#189FE0"/>
</g>
<g style="mix-blend-mode:multiply">
<path d="M50.3935 16.5322C48.223 17.3657 46.3348 18.7421 44.9324 20.513L35.374 33.4876L25.8097 20.513C24.4057 18.7461 22.5177 17.3737 20.3486 16.5433V21.7276L35.374 42.1558L50.4052 21.7276L50.3935 16.5322Z" fill="#189FE0"/>
</g>
<g style="mix-blend-mode:multiply">
<path d="M55.7029 15.6433C54.8038 15.6448 53.9066 15.7224 53.0221 15.8752V20.9381C54.3682 20.5794 55.78 20.497 57.1627 20.6962C58.5453 20.8954 59.8667 21.3717 61.0379 22.093C62.209 22.8143 63.2027 23.7639 63.9522 24.8778C64.7016 25.9917 65.1894 27.2442 65.3827 28.5509C65.5759 29.8575 65.4702 31.1881 65.0726 32.453C64.6749 33.7179 63.9947 34.8878 63.0775 35.8839C62.1604 36.88 61.0276 37.6792 59.7556 38.2277C58.4835 38.7763 57.1016 39.0614 55.7029 39.064C54.208 39.0636 52.7335 38.7367 51.3949 38.1088C51.1199 37.9555 50.888 37.7421 50.7189 37.4864C50.5498 37.2308 50.4484 36.9406 50.4233 36.6402V26.0341L45.2314 33.1011V38.3076C45.2314 38.3793 45.2314 38.5947 45.2607 38.6664L45.2958 38.9149C45.2958 38.9646 45.2958 39.0198 45.3251 39.0695V39.1578C45.3884 39.3905 45.4726 39.6177 45.5768 39.8369L45.7817 40.1627L45.8812 40.3062C46.009 40.507 46.1623 40.6924 46.3377 40.8583C48.9765 42.9021 52.2886 44.0131 55.7029 43.9998C59.6895 43.9998 63.5127 42.5061 66.3316 39.8471C69.1505 37.1882 70.7341 33.5819 70.7341 29.8216C70.7341 26.0613 69.1505 22.455 66.3316 19.796C63.5127 17.1371 59.6895 15.6433 55.7029 15.6433Z" fill="#189FE0"/>
</g>
<g style="mix-blend-mode:multiply">
<path d="M25.8156 16.223C25.5037 14.8768 25.5157 13.4818 25.8507 12.1405C26.1856 10.7993 26.835 9.54589 27.7511 8.47254C28.6672 7.39919 29.8267 6.53317 31.1444 5.93817C32.4621 5.34316 33.9043 5.03431 35.3652 5.03431C36.8261 5.03431 38.2684 5.34316 39.586 5.93817C40.9037 6.53317 42.0632 7.39919 42.9793 8.47254C43.8954 9.54589 44.5448 10.7993 44.8798 12.1405C45.2147 13.4818 45.2267 14.8768 44.9148 16.223C46.5514 15.1046 48.4111 14.3102 50.3818 13.8876C50.3042 10.1793 48.6879 6.6477 45.8802 4.05109C43.0725 1.45448 39.2973 0 35.3652 0C31.4331 0 27.6579 1.45448 24.8502 4.05109C22.0425 6.6477 20.4263 10.1793 20.3486 13.8876C22.3193 14.3102 24.179 15.1046 25.8156 16.223Z" fill="#189FE0"/>
</g>
<g style="mix-blend-mode:multiply">
<path d="M80.0019 16.5265V16.489C79.9794 15.5397 80.1615 14.5959 80.5374 13.7143C80.9133 12.8328 81.4752 12.0317 82.1892 11.3592C82.9033 10.6868 83.7547 10.1568 84.6925 9.80126C85.6302 9.44568 86.6349 9.27182 87.646 9.29012C88.7192 9.24977 89.7896 9.41956 90.7892 9.78869C91.7887 10.1578 92.6955 10.7182 93.4519 11.4342L91.7792 13.246C91.2426 12.714 90.599 12.2871 89.8857 11.99C89.1723 11.6928 88.4034 11.5312 87.6232 11.5147C84.7687 11.5147 82.7364 13.7017 82.7364 16.4247V16.4676C82.7364 19.1906 84.7859 21.4151 87.6232 21.4151C89.4443 21.4151 90.6089 20.7183 91.882 19.6087L93.5547 21.2168C92.8104 22.021 91.8848 22.6594 90.845 23.0859C89.8052 23.5124 88.6773 23.7162 87.5432 23.6825C86.5429 23.6936 85.5504 23.5154 84.6248 23.1588C83.6993 22.8021 82.8597 22.2742 82.156 21.6065C81.4524 20.9387 80.899 20.1449 80.5289 19.2721C80.1588 18.3994 79.9796 17.4657 80.0019 16.5265Z" fill="#189FE0"/>
</g>
<g style="mix-blend-mode:multiply">
<path d="M96.9434 9.2843H99.685L104.147 16.0864L108.604 9.2843H111.345V23.6861H108.767V13.3556L104.147 20.1355H104.062L99.4762 13.3944V23.6695H96.9434V9.2843Z" fill="#189FE0"/>
</g>
<g style="mix-blend-mode:multiply">
<path d="M114.735 16.5265V16.489C114.711 15.5392 114.905 14.5949 115.305 13.713C115.704 12.8311 116.302 12.0298 117.061 11.3573C117.82 10.6847 118.725 10.1549 119.721 9.79966C120.718 9.44441 121.786 9.27109 122.86 9.29012C124 9.24977 125.137 9.41956 126.198 9.78869C127.26 10.1578 128.223 10.7182 129.026 11.4342L127.25 13.246C126.68 12.714 125.996 12.2871 125.239 11.99C124.481 11.6928 123.664 11.5312 122.836 11.5147C119.804 11.5147 117.646 13.7017 117.646 16.4247V16.4676C117.646 19.1906 119.822 21.4151 122.836 21.4151C124.77 21.4151 126.007 20.7183 127.359 19.6087L129.135 21.2168C128.345 22.021 127.362 22.6594 126.257 23.0859C125.153 23.5124 123.955 23.7162 122.751 23.6825C121.688 23.6943 120.633 23.5167 119.649 23.1603C118.666 22.804 117.773 22.2762 117.025 21.6084C116.277 20.9406 115.689 20.1465 115.296 19.2734C114.902 18.4003 114.712 17.4661 114.735 16.5265Z" fill="#189FE0"/>
</g>
<g style="mix-blend-mode:multiply">
<path d="M137.608 16.5568V16.5191C137.592 15.5677 137.788 14.6229 138.182 13.7408C138.577 12.8587 139.164 12.0571 139.907 11.3835C140.651 10.7098 141.536 10.1778 142.511 9.81887C143.485 9.45992 144.53 9.28133 145.582 9.29367C147.764 9.19526 149.901 9.87535 151.533 11.1875L149.813 13.0436C149.237 12.5492 148.558 12.1626 147.815 11.906C147.073 11.6493 146.282 11.5276 145.487 11.5479C142.637 11.5479 140.477 13.8022 140.477 16.4761V16.5191C140.477 19.3921 142.571 21.5065 145.731 21.5065C147.07 21.5152 148.377 21.1383 149.462 20.4305V17.8158H145.463V15.6637H152.009V21.5334C150.217 22.9273 147.929 23.6912 145.565 23.6854C140.762 23.7392 137.608 20.6295 137.608 16.5568Z" fill="#189FE0"/>
</g>
<g style="mix-blend-mode:multiply">
<path d="M155.397 9.2843H158.173V21.3801H166.411V23.6861H155.397V9.2843Z" fill="#189FE0"/>
</g>
<g style="mix-blend-mode:multiply">
<path d="M168.952 16.5248V16.4867C169 14.5645 169.821 12.7362 171.241 11.3911C172.661 10.0459 174.568 9.29 176.555 9.28433C178.542 9.27867 180.453 10.0237 181.881 11.3607C183.309 12.6978 184.142 14.5213 184.201 16.4432V16.4867C184.153 18.4088 183.331 20.2368 181.91 21.5814C180.49 22.926 178.583 23.6811 176.596 23.6861C174.609 23.6911 172.698 22.9454 171.27 21.6079C169.843 20.2704 169.011 18.4466 168.952 16.5248ZM181.511 16.5248V16.4867C181.511 13.7696 179.45 11.4655 176.557 11.4655C173.664 11.4655 171.637 13.7044 171.637 16.4432V16.4867C171.637 19.2038 173.698 21.5025 176.596 21.5025C179.494 21.5025 181.511 19.2636 181.511 16.5248Z" fill="#189FE0"/>
</g>
<g style="mix-blend-mode:multiply">
<path d="M187.59 9.2843H194.44C196.2 9.2843 197.556 9.73957 198.425 10.5613C198.759 10.8715 199.023 11.2436 199.198 11.6543C199.374 12.0651 199.459 12.5057 199.446 12.9486V12.993C199.459 13.6723 199.259 14.34 198.872 14.9121C198.484 15.4841 197.927 15.9349 197.269 16.2076C199.03 16.7628 200.297 17.7511 200.297 19.7054V19.7331C200.297 22.3037 198.055 23.6861 194.657 23.6861H187.613L187.59 9.2843ZM193.882 15.3637C195.602 15.3637 196.758 14.7197 196.758 13.4039V13.365C196.758 12.2546 195.801 11.5329 194.082 11.5329H190.225V15.3637H193.882ZM194.668 21.4709C196.494 21.4709 197.603 20.788 197.603 19.4888V19.45C197.603 18.2341 196.576 17.5123 194.463 17.5123H190.219V21.4709H194.668Z" fill="#189FE0"/>
</g>
<g style="mix-blend-mode:multiply">
<path d="M208.78 9.2843H211.294L218.088 23.6861H215.217L213.654 20.233H206.355L204.768 23.6861H201.992L208.78 9.2843ZM212.662 18.008L209.993 12.2858L207.348 18.008H212.662Z" fill="#189FE0"/>
</g>
<g style="mix-blend-mode:multiply">
<path d="M220.63 9.2843H223.388V21.3801H231.643V23.6861H220.63V9.2843Z" fill="#189FE0"/>
</g>
</svg>
